<svg xmlns="http://www.w3.org/2000/svg" width="1600" height="1600" viewBox="0 0 1600 1600"><path id="d-airport" class="district" d="M816.0 0.0L1600 0L1600.0 694.0L1595.8 693.2z" fill="var(--d-airport, transparent)" stroke="var(--d-airport-edge, none)" stroke-width="6"/><path id="d-autos" class="district" d="M1600.0 694.0L1600 1600L1484.4 1600.0L872.0 1016.8L872.0 1010.7L1021.4 804.4L1595.8 693.2z" fill="var(--d-autos, transparent)" stroke="var(--d-autos-edge, none)" stroke-width="6"/><path id="d-burger" class="district" d="M872.0 1010.7L872.0 1016.8L576.2 1340.8L9.2 833.5L428.8 715.2z" fill="var(--d-burger, transparent)" stroke="var(--d-burger-edge, none)" stroke-width="6"/><path id="d-resi" class="district" d="M0 0L813.3 0.0L774.1 235.6L428.8 715.2L9.2 833.5L0.0 832.6z" fill="var(--d-resi, transparent)" stroke="var(--d-resi-edge, none)" stroke-width="6"/><path id="d-school" class="district" d="M563.2 1600.0L0 1600L0.0 832.6L9.2 833.5L576.2 1340.8z" fill="var(--d-school, transparent)" stroke="var(--d-school-edge, none)" stroke-width="6"/><path id="d-store" class="district" d="M813.3 0.0L816.0 0.0L1595.8 693.2L1021.4 804.4L774.1 235.6z" fill="var(--d-store, transparent)" stroke="var(--d-store-edge, none)" stroke-width="6"/><path id="d-street" class="district" d="M1021.4 804.4L872.0 1010.7L428.8 715.2L774.1 235.6z" fill="var(--d-street, transparent)" stroke="var(--d-street-edge, none)" stroke-width="6"/><path id="d-workshop" class="district" d="M1484.4 1600.0L563.2 1600.0L576.2 1340.8L872.0 1016.8z" fill="var(--d-workshop, transparent)" stroke="var(--d-workshop-edge, none)" stroke-width="6"/></svg>