<svg xmlns="http://www.w3.org/2000/svg" style="display:none">
  <symbol id="cb-act_attack" viewBox="0 0 48 48" fill="none" stroke="currentColor" stroke-width="3" stroke-linecap="round" stroke-linejoin="round"><path d="M11.57 27.18L37.95 8.71L42.57 15.31L30.32 23.88L36.35 36.51L29.76 41.12L23.73 28.5L16.19 33.78z"/><path d="M36.43 27.18L10.05 8.71L5.43 15.31L17.68 23.88L11.65 36.51L18.24 41.12L24.27 28.5L31.81 33.78z"/></symbol>
  <symbol id="cb-act_flee" viewBox="0 0 48 48" fill="none" stroke="currentColor" stroke-width="3" stroke-linecap="round" stroke-linejoin="round"><path d="M25.5 9a4.5 4.5 0 1 0 9 0a4.5 4.5 0 1 0 -9 0z"/><path d="M27 17L21 28"/><path d="M30 33L21 28L13 34L7 40"/><path d="M30 33L29 43"/><path d="M26 19L35 24L41 20"/><path d="M24 19L16 22L11 17"/><path d="M3 17L10 17"/><path d="M2 27L7 27"/></symbol>
  <symbol id="cb-act_surrender" viewBox="0 0 48 48" fill="none" stroke="currentColor" stroke-width="3" stroke-linecap="round" stroke-linejoin="round"><path d="M19 12a5 5 0 1 0 10 0a5 5 0 1 0 -10 0z"/><path d="M9 6L15 22L16 44L32 44L33 22L39 6"/></symbol>
  <symbol id="cb-act_skip" viewBox="0 0 48 48" fill="none" stroke="currentColor" stroke-width="3" stroke-linecap="round" stroke-linejoin="round"><path d="M7 10L21 24L7 38"/><path d="M22 10L36 24L22 38"/><path d="M42 10L42 38"/></symbol>
  <symbol id="cb-act_do" viewBox="0 0 48 48" fill="none" stroke="currentColor" stroke-width="3" stroke-linecap="round" stroke-linejoin="round"><path d="M15 6h18a9 9 0 0 1 9 9v18a9 9 0 0 1 -9 9h-18a9 9 0 0 1 -9 -9v-18a9 9 0 0 1 9 -9z"/><path d="M14 25L21 32L34 17"/></symbol>
  <symbol id="cb-act_leave" viewBox="0 0 48 48" fill="none" stroke="currentColor" stroke-width="3" stroke-linecap="round" stroke-linejoin="round"><path d="M20 6L8 6L8 42L20 42"/><path d="M16 24L42 24"/><path d="M32 14L42 24L32 34"/></symbol>
  <symbol id="cb-act_go" viewBox="0 0 48 48" fill="none" stroke="currentColor" stroke-width="3" stroke-linecap="round" stroke-linejoin="round"><path d="M5 24a19 19 0 1 0 38 0a19 19 0 1 0 -38 0z"/><path d="M19 15L33 24L19 33z"/></symbol>
  <symbol id="cb-ord_focus" viewBox="0 0 48 48" fill="none" stroke="currentColor" stroke-width="3" stroke-linecap="round" stroke-linejoin="round"><path d="M7 24a17 17 0 1 0 34 0a17 17 0 1 0 -34 0z"/><path d="M24 3L24 11"/><path d="M24 37L24 45"/><path d="M3 24L11 24"/><path d="M37 24L45 24"/><path d="M20 18a4 4 0 1 0 8 0a4 4 0 1 0 -8 0z"/><path d="M16 32a8 8 0 0 1 16 0z"/></symbol>
  <symbol id="cb-ord_spread" viewBox="0 0 48 48" fill="none" stroke="currentColor" stroke-width="3" stroke-linecap="round" stroke-linejoin="round"><path d="M5.5 8a3.5 3.5 0 1 0 7 0a3.5 3.5 0 1 0 -7 0z"/><path d="M4 20a5 5 0 0 1 10 0z"/><path d="M20.5 8a3.5 3.5 0 1 0 7 0a3.5 3.5 0 1 0 -7 0z"/><path d="M19 20a5 5 0 0 1 10 0z"/><path d="M35.5 8a3.5 3.5 0 1 0 7 0a3.5 3.5 0 1 0 -7 0z"/><path d="M34 20a5 5 0 0 1 10 0z"/><path d="M24 44L9 28"/><path d="M24 44L24 28"/><path d="M24 44L39 28"/><path d="M9 35L9 28L16 28"/><path d="M18 33L24 27L30 33"/><path d="M39 35L39 28L32 28"/></symbol>
  <symbol id="cb-ord_weakest" viewBox="0 0 48 48" fill="none" stroke="currentColor" stroke-width="3" stroke-linecap="round" stroke-linejoin="round"><path d="M12 9a5 5 0 1 0 10 0a5 5 0 1 0 -10 0z"/><path d="M6 27a11 11 0 0 1 22 0z"/><path d="M8 33h32a3 3 0 0 1 3 3v4a3 3 0 0 1 -3 3h-32a3 3 0 0 1 -3 -3v-4a3 3 0 0 1 3 -3z"/><path d="M10 38L17 38"/><path d="M38 6L38 22"/><path d="M31 15L38 22L45 15"/></symbol>
  <symbol id="cb-ord_armed" viewBox="0 0 48 48" fill="none" stroke="currentColor" stroke-width="3" stroke-linecap="round" stroke-linejoin="round"><path d="M8 13a5 5 0 1 0 10 0a5 5 0 1 0 -10 0z"/><path d="M3 30a10 10 0 0 1 20 0z"/><path d="M19 28L41.4 28L41.4 33.6L31 33.6L29.4 43.2L23.8 43.2L25.4 33.6L19 33.6z"/><path d="M29 12a8 8 0 1 0 16 0a8 8 0 1 0 -16 0z"/><path d="M37 12v.01"/></symbol>
  <symbol id="cb-ord_defend" viewBox="0 0 48 48" fill="none" stroke="currentColor" stroke-width="3" stroke-linecap="round" stroke-linejoin="round"><path d="M24 4L40 10V24C40 34 33 40 24 44C15 40 8 34 8 24V10Z"/><path d="M20.5 17a3.5 3.5 0 1 0 7 0a3.5 3.5 0 1 0 -7 0z"/><path d="M17 33V29a7 6 0 0 1 14 0V33"/></symbol>
  <symbol id="cb-ord_item" viewBox="0 0 48 48" fill="none" stroke="currentColor" stroke-width="3" stroke-linecap="round" stroke-linejoin="round"><path d="M19 14h10a9 9 0 0 1 9 9v12a9 9 0 0 1 -9 9h-10a9 9 0 0 1 -9 -9v-12a9 9 0 0 1 9 -9z"/><path d="M18 14V10a6 6 0 0 1 12 0V14"/><path d="M24 21L24 29"/><path d="M20 25L28 25"/><path d="M16 37L32 37"/></symbol>
  <symbol id="cb-status_bleed" viewBox="0 0 48 48" fill="none" stroke="currentColor" stroke-width="3" stroke-linecap="round" stroke-linejoin="round"><path d="M24 5C24 5 11 20 11 29a13 13 0 0 0 26 0C37 20 24 5 24 5z"/><path d="M17 30a7 7 0 0 0 5 7"/></symbol>
  <symbol id="cb-status_stun" viewBox="0 0 48 48" fill="none" stroke="currentColor" stroke-width="3" stroke-linecap="round" stroke-linejoin="round"><path d="M24 22L24.9 21.77L25.95 21.98L26.94 22.69L27.62 23.87L27.78 25.38L27.29 26.96L26.12 28.34L24.37 29.23L22.26 29.37L20.11 28.63L18.3 27.03L17.18 24.72L17.02 22L17.96 19.28L19.96 17.01L22.82 15.61L26.15 15.38L29.46 16.49L32.22 18.86L33.94 22.25L34.27 26.18L33.04 30.1L30.32 33.38L26.44 35.46L21.9 35.93L17.36 34.62L13.54 31.6L11.06 27.23L10.4 22.09L11.75 16.93L15.04 12.54L19.88 9.63L25.61 8.73L31.4 10.08L36.38 13.61L39.76 18.88L40.93 25.18L39.62 31.62L35.9 37.22L30.22 41.09L23.35 42.58L16.27 41.36"/></symbol>
  <symbol id="cb-status_mania" viewBox="0 0 48 48" fill="none" stroke="currentColor" stroke-width="3" stroke-linecap="round" stroke-linejoin="round"><path d="M5 24a19 19 0 1 0 38 0a19 19 0 1 0 -38 0z"/><path d="M27 9L15 26L23 26L21 39L33 21L25 21z"/></symbol>
  <symbol id="cb-status_withdrawal" viewBox="0 0 48 48" fill="none" stroke="currentColor" stroke-width="3" stroke-linecap="round" stroke-linejoin="round"><path d="M14.1 24L24 14.1A7 7 0 0 1 33.9 24L24 33.9A7 7 0 0 1 14.1 24z"/><path d="M19 29L29 19"/><path d="M5 18q-3 6 0 12"/><path d="M43 18q3 6 0 12"/><path d="M9 13q-2 3 0 5"/><path d="M39 30q2 3 0 5"/></symbol>
  <symbol id="cb-status_armor" viewBox="0 0 48 48" fill="none" stroke="currentColor" stroke-width="3" stroke-linecap="round" stroke-linejoin="round"><path d="M16 6L8 12V42H40V12L32 6"/><path d="M16 6Q24 16 32 6"/><path d="M24 16L24 42"/></symbol>
  <symbol id="cb-status_fleeing" viewBox="0 0 48 48" fill="none" stroke="currentColor" stroke-width="3" stroke-linecap="round" stroke-linejoin="round"><path d="M22.5 7a4.5 4.5 0 1 0 9 0a4.5 4.5 0 1 0 -9 0z"/><path d="M24 15L18 26"/><path d="M27 31L18 26L10 32L4 38"/><path d="M27 31L26 41"/><path d="M23 17L32 22L38 18"/><path d="M21 17L13 20L8 15"/><path d="M4 15L10 15"/></symbol>
  <symbol id="cb-status_ko" viewBox="0 0 48 48" fill="none" stroke="currentColor" stroke-width="3" stroke-linecap="round" stroke-linejoin="round"><path d="M5 24a19 19 0 1 0 38 0a19 19 0 1 0 -38 0z"/><path d="M13 16L20 23"/><path d="M20 16L13 23"/><path d="M28 16L35 23"/><path d="M35 16L28 23"/><path d="M16 34L32 34"/></symbol>
  <symbol id="cb-ico_siren" viewBox="0 0 48 48" fill="none" stroke="currentColor" stroke-width="3" stroke-linecap="round" stroke-linejoin="round"><path d="M14 35V25a10 10 0 0 1 20 0V35"/><path d="M7 35H41V43H7Z"/><path d="M24 4L24 9"/><path d="M8 10L13 15"/><path d="M40 10L35 15"/><path d="M3 25L8 25"/><path d="M45 25L40 25"/><path d="M19 28a5 5 0 0 1 5 -5"/></symbol>
  <symbol id="cb-ico_siren_ring" viewBox="0 0 48 48" fill="none" stroke="currentColor" stroke-width="3" stroke-linecap="round" stroke-linejoin="round"><path d="M4 24a20 20 0 1 0 40 0a20 20 0 1 0 -40 0z" class="ring-track" opacity=".3"/><path d="M24 4a20 20 0 1 1 0 40a20 20 0 1 1 0 -40" class="ring-meter" pathLength="100" stroke-dasharray="65 100"/><path d="M17 32V26a7 7 0 0 1 14 0V32"/><path d="M14 32H34V38H14Z"/><path d="M24 14L24 17"/></symbol>
  <symbol id="cb-ico_readiness_gauge" viewBox="0 0 48 48" fill="none" stroke="currentColor" stroke-width="3" stroke-linecap="round" stroke-linejoin="round"><path d="M5 36A19 19 0 0 1 43 36"/><path d="M24 13L24 17"/><path d="M8 21L11 23"/><path d="M40 21L37 23"/><path d="M13 13L16 16"/><path d="M35 13L32 16"/><path d="M4 41L44 41"/><path d="M24 36L24 20" class="gauge-needle"/><path d="M21 36a3 3 0 1 0 6 0a3 3 0 1 0 -6 0z"/></symbol>
  <symbol id="cb-stat_hitrate" viewBox="0 0 48 48" fill="none" stroke="currentColor" stroke-width="3" stroke-linecap="round" stroke-linejoin="round"><path d="M5 27a16 16 0 1 0 32 0a16 16 0 1 0 -32 0z"/><path d="M14 27a7 7 0 1 0 14 0a7 7 0 1 0 -14 0z"/><path d="M21 27L42 6"/><path d="M42 6L34 6"/><path d="M42 6L42 14"/></symbol>
  <symbol id="cb-stat_dmg_range" viewBox="0 0 48 48" fill="none" stroke="currentColor" stroke-width="3" stroke-linecap="round" stroke-linejoin="round"><path d="M24 2L26.68 8.53L33.19 5.81L30.47 12.32L37 15L30.47 17.68L33.19 24.19L26.68 21.47L24 28L21.32 21.47L14.81 24.19L17.53 17.68L11 15L17.53 12.32L14.81 5.81L21.32 8.53z"/><path d="M6 38L42 38"/><path d="M12 32L6 38L12 44"/><path d="M36 32L42 38L36 44"/></symbol>
  <symbol id="cb-stat_ammo" viewBox="0 0 48 48" fill="none" stroke="currentColor" stroke-width="3" stroke-linecap="round" stroke-linejoin="round"><path d="M13 6H35V40a3 3 0 0 1 -3 3H16a3 3 0 0 1 -3 -3Z"/><path d="M19 15L29 15"/><path d="M19 24L29 24"/><path d="M19 33L29 33"/></symbol>
  <symbol id="cb-stat_xp_plus" viewBox="0 0 48 48" fill="none" stroke="currentColor" stroke-width="3" stroke-linecap="round" stroke-linejoin="round"><path d="M5 25L21 25"/><path d="M13 17L13 33"/><path d="M31 18L37 12L37 38"/><path d="M30 38L44 38"/></symbol>
  <symbol id="cb-pip_bleed" viewBox="0 0 24 24" fill="none" stroke="currentColor" stroke-width="1.75" stroke-linecap="round" stroke-linejoin="round"><path d="M12 2.5C12 2.5 5.5 10 5.5 14.5a6.5 6.5 0 0 0 13 0C18.5 10 12 2.5 12 2.5z"/><path d="M8.5 15a3.5 3.5 0 0 0 2.5 3.5"/></symbol>
  <symbol id="cb-pip_stun" viewBox="0 0 24 24" fill="none" stroke="currentColor" stroke-width="1.75" stroke-linecap="round" stroke-linejoin="round"><path d="M12 11L12.45 10.88L12.97 10.99L13.47 11.35L13.81 11.94L13.89 12.69L13.64 13.48L13.06 14.17L12.19 14.62L11.13 14.69L10.05 14.31L9.15 13.52L8.59 12.36L8.51 11L8.98 9.64L9.98 8.51L11.41 7.8L13.07 7.69L14.73 8.24L16.11 9.43L16.97 11.12L17.14 13.09L16.52 15.05L15.16 16.69L13.22 17.73L10.95 17.96L8.68 17.31L6.77 15.8L5.53 13.62L5.2 11.04L5.88 8.46L7.52 6.27L9.94 4.82L12.8 4.37L15.7 5.04L18.19 6.8L19.88 9.44L20.46 12.59L19.81 15.81L17.95 18.61L15.11 20.55L11.68 21.29L8.13 20.68"/></symbol>
  <symbol id="cb-pip_mania" viewBox="0 0 24 24" fill="none" stroke="currentColor" stroke-width="1.75" stroke-linecap="round" stroke-linejoin="round"><path d="M2.5 12a9.5 9.5 0 1 0 19 0a9.5 9.5 0 1 0 -19 0z"/><path d="M13.5 4.5L7.5 13L11.5 13L10.5 19.5L16.5 10.5L12.5 10.5z"/></symbol>
  <symbol id="cb-pip_withdrawal" viewBox="0 0 24 24" fill="none" stroke="currentColor" stroke-width="1.75" stroke-linecap="round" stroke-linejoin="round"><path d="M7.05 12L12 7.05A3.5 3.5 0 0 1 16.95 12L12 16.95A3.5 3.5 0 0 1 7.05 12z"/><path d="M9.5 14.5L14.5 9.5"/><path d="M2.5 9q-1.5 3 0 6"/><path d="M21.5 9q1.5 3 0 6"/><path d="M4.5 6.5q-1 1.5 0 2.5"/><path d="M19.5 15q1 1.5 0 2.5"/></symbol>
  <symbol id="cb-pip_armor" viewBox="0 0 24 24" fill="none" stroke="currentColor" stroke-width="1.75" stroke-linecap="round" stroke-linejoin="round"><path d="M8 3L4 6V21H20V6L16 3"/><path d="M8 3Q12 8 16 3"/><path d="M12 8L12 21"/></symbol>
  <symbol id="cb-pip_fleeing" viewBox="0 0 24 24" fill="none" stroke="currentColor" stroke-width="1.75" stroke-linecap="round" stroke-linejoin="round"><path d="M11.25 3.5a2.25 2.25 0 1 0 4.5 0a2.25 2.25 0 1 0 -4.5 0z"/><path d="M12 7.5L9 13"/><path d="M13.5 15.5L9 13L5 16L2 19"/><path d="M13.5 15.5L13 20.5"/><path d="M11.5 8.5L16 11L19 9"/><path d="M10.5 8.5L6.5 10L4 7.5"/><path d="M2 7.5L5 7.5"/></symbol>
  <symbol id="cb-pip_ko" viewBox="0 0 24 24" fill="none" stroke="currentColor" stroke-width="1.75" stroke-linecap="round" stroke-linejoin="round"><path d="M2.5 12a9.5 9.5 0 1 0 19 0a9.5 9.5 0 1 0 -19 0z"/><path d="M6.5 8L10 11.5"/><path d="M10 8L6.5 11.5"/><path d="M14 8L17.5 11.5"/><path d="M17.5 8L14 11.5"/><path d="M8 17L16 17"/></symbol>
  <symbol id="cb-ovl_skull_dead" viewBox="0 0 96 96"><path style="fill:var(--dead-red,#ff2d2d)" fill-rule="evenodd" d="M48 6C26 6 12 21 12 40C12 52 17 60 25 65V80H71V65C79 60 84 52 84 40C84 21 70 6 48 6ZM26 42a10 12 0 1 0 20 0a10 12 0 1 0 -20 0Z M50 42a10 12 0 1 0 20 0a10 12 0 1 0 -20 0ZM48 52L42 63H54ZM34 69H39V76H34Z M45.5 69H50.5V76H45.5Z M57 69H62V76H57Z"/></symbol>
  <symbol id="cb-ovl_skull_ko" viewBox="0 0 96 96"><path style="fill:var(--ko-red,#6e0f14)" fill-rule="evenodd" d="M48 6C26 6 12 21 12 40C12 52 17 60 25 65V80H71V65C79 60 84 52 84 40C84 21 70 6 48 6ZM26 42a10 12 0 1 0 20 0a10 12 0 1 0 -20 0Z M50 42a10 12 0 1 0 20 0a10 12 0 1 0 -20 0ZM48 52L42 63H54ZM34 69H39V76H34Z M45.5 69H50.5V76H45.5Z M57 69H62V76H57Z"/></symbol>
  <symbol id="cb-ovl_ko_stars" viewBox="0 0 96 96"><path style="fill:var(--ko-star,#ffd84a)" d="M8 56a40 14 0 1 1 80 0a40 14 0 1 1 -80 0Z M14 56a34 10 0 1 0 68 0a34 10 0 1 0 -68 0ZM48 13L51.7 22.9L62.27 23.36L53.99 29.95L56.82 40.14L48 34.3L39.18 40.14L42.01 29.95L33.73 23.36L44.3 22.9zM82.24 28.2L85.94 38.1L96.5 38.57L88.23 45.15L91.05 55.34L82.24 49.5L73.42 55.34L76.25 45.15L67.97 38.57L78.53 38.1zM69.16 52.8L72.86 62.7L83.43 63.16L75.15 69.75L77.98 79.93L69.16 74.1L60.34 79.93L63.17 69.75L54.89 63.16L65.46 62.7zM26.84 52.8L30.54 62.7L41.11 63.16L32.83 69.75L35.66 79.93L26.84 74.1L18.02 79.93L20.85 69.75L12.57 63.16L23.14 62.7zM13.76 28.2L17.47 38.1L28.03 38.57L19.75 45.15L22.58 55.34L13.76 49.5L4.95 55.34L7.77 45.15L-0.5 38.57L10.06 38.1z"/></symbol>
  <symbol id="cb-ovl_fleeing_tint" viewBox="0 0 96 96"><path style="fill:var(--flee-red,#e5484d)" d="M0 0H12L-84 96H-96ZM24 0H36L-60 96H-72ZM48 0H60L-36 96H-48ZM72 0H84L-12 96H-24ZM96 0H108L12 96H0ZM120 0H132L36 96H24ZM144 0H156L60 96H48ZM168 0H180L84 96H72Z"/></symbol>
  <symbol id="cb-fx_hit_flash" viewBox="0 0 96 96"><path fill="currentColor" d="M48 2L54.49 28.03L71.25 16L64.99 35.66L79.5 37.77L69 48L91.75 62.21L64.99 60.34L71.25 80L54.49 67.97L48 81.12L41.51 67.97L20.96 85.21L31.01 60.34L10.38 60.22L27 48L16.5 37.77L31.01 35.66L20.96 10.79L41.51 28.03z"/></symbol>
  <symbol id="cb-fx_muzzle_flash" viewBox="0 0 96 96"><path fill="currentColor" d="M92 48L54 41L78 26L44 32L58 8L32 27L22 10L18 31L3 25L12 42L2 48L12 54L3 71L18 65L22 86L32 69L58 88L44 64L78 70L54 55z"/></symbol>
  <symbol id="cb-fx_miss_puff" viewBox="0 0 96 96"><path fill="currentColor" d="M13 58a17 17 0 1 0 34 0a17 17 0 1 0 -34 0zM29 44a21 21 0 1 0 42 0a21 21 0 1 0 -42 0zM51 58a17 17 0 1 0 34 0a17 17 0 1 0 -34 0zM32 66a16 16 0 1 0 32 0a16 16 0 1 0 -32 0zM75 28a7 7 0 1 0 14 0a7 7 0 1 0 -14 0zM8 34a6 6 0 1 0 12 0a6 6 0 1 0 -12 0zM16 14a4 4 0 1 0 8 0a4 4 0 1 0 -8 0z"/></symbol>
  <symbol id="cb-fx_crit_burst" viewBox="0 0 96 96"><path fill="currentColor" fill-rule="evenodd" d="M48 8.05L53.46 20.54L60.59 17.6L63.56 24.72L81.23 14.77L71.28 32.44L84.91 32.71L75.46 42.54L80.9 48L75.46 53.46L91.42 65.99L71.28 63.56L76.25 76.25L63.56 71.28L60.59 78.4L53.46 75.46L48 95L42.54 75.46L32.71 84.91L32.44 71.28L24.74 71.26L24.72 63.56L4.58 65.99L20.54 53.46L8.05 48L20.54 42.54L17.6 35.41L24.72 32.44L14.77 14.77L32.44 24.72L32.71 11.09L42.54 20.54zM35 48a13 13 0 1 0 26 0a13 13 0 1 0 -26 0z"/></symbol>
  <symbol id="cb-fx_armor_spark" viewBox="0 0 96 96"><path fill="currentColor" d="M48 8L55 41L88 48L55 55L48 88L41 55L8 48L41 41ZM20 8L23 17L32 20L23 23L20 32L17 23L8 20L17 17ZM76 62L79 71L88 74L79 77L76 86L73 77L64 74L73 71Z"/></symbol>
</svg>
