<svg xmlns="http://www.w3.org/2000/svg" width="390" height="844" viewBox="0 0 390 844"><defs><linearGradient id="fade" x1="0" y1="0" x2="1" y2="0"><stop offset="0" stop-color="#15171a" stop-opacity=".9"/><stop offset=".22" stop-color="#15171a" stop-opacity=".9"/><stop offset=".34" stop-color="#15171a" stop-opacity=".35"/><stop offset=".66" stop-color="#15171a" stop-opacity=".35"/><stop offset=".78" stop-color="#15171a" stop-opacity=".9"/><stop offset="1" stop-color="#15171a" stop-opacity=".9"/></linearGradient></defs><rect x="0" y="457.3" width="390" height="2.2" fill="url(#fade)"/><rect x="0" y="441.6" width="34" height="1.3" fill="#15171a" fill-opacity=".85"/><rect x="356" y="441.6" width="34" height="1.3" fill="#15171a" fill-opacity=".85"/><rect x="0" y="425.4" width="34" height="1.3" fill="#15171a" fill-opacity=".85"/><rect x="356" y="425.4" width="34" height="1.3" fill="#15171a" fill-opacity=".85"/><rect x="0" y="408.7" width="390" height="2.2" fill="url(#fade)"/><rect x="0" y="393.0" width="34" height="1.3" fill="#15171a" fill-opacity=".85"/><rect x="356" y="393.0" width="34" height="1.3" fill="#15171a" fill-opacity=".85"/><rect x="0" y="376.8" width="34" height="1.3" fill="#15171a" fill-opacity=".85"/><rect x="356" y="376.8" width="34" height="1.3" fill="#15171a" fill-opacity=".85"/><rect x="0" y="360.1" width="390" height="2.2" fill="url(#fade)"/><rect x="0" y="344.4" width="34" height="1.3" fill="#15171a" fill-opacity=".85"/><rect x="356" y="344.4" width="34" height="1.3" fill="#15171a" fill-opacity=".85"/><rect x="0" y="328.2" width="34" height="1.3" fill="#15171a" fill-opacity=".85"/><rect x="356" y="328.2" width="34" height="1.3" fill="#15171a" fill-opacity=".85"/><rect x="0" y="311.5" width="390" height="2.2" fill="url(#fade)"/><rect x="0" y="295.8" width="34" height="1.3" fill="#15171a" fill-opacity=".85"/><rect x="356" y="295.8" width="34" height="1.3" fill="#15171a" fill-opacity=".85"/><rect x="0" y="279.6" width="34" height="1.3" fill="#15171a" fill-opacity=".85"/><rect x="356" y="279.6" width="34" height="1.3" fill="#15171a" fill-opacity=".85"/><rect x="0" y="262.9" width="390" height="2.2" fill="url(#fade)"/><rect x="0" y="247.2" width="34" height="1.3" fill="#15171a" fill-opacity=".85"/><rect x="356" y="247.2" width="34" height="1.3" fill="#15171a" fill-opacity=".85"/><rect x="0" y="230.9" width="34" height="1.3" fill="#15171a" fill-opacity=".85"/><rect x="356" y="230.9" width="34" height="1.3" fill="#15171a" fill-opacity=".85"/><rect x="0" y="214.3" width="390" height="2.2" fill="url(#fade)"/><rect x="0" y="198.5" width="34" height="1.3" fill="#15171a" fill-opacity=".85"/><rect x="356" y="198.5" width="34" height="1.3" fill="#15171a" fill-opacity=".85"/><rect x="0" y="182.3" width="34" height="1.3" fill="#15171a" fill-opacity=".85"/><rect x="356" y="182.3" width="34" height="1.3" fill="#15171a" fill-opacity=".85"/><rect x="0" y="165.7" width="390" height="2.2" fill="url(#fade)"/><rect x="0" y="149.9" width="34" height="1.3" fill="#15171a" fill-opacity=".85"/><rect x="356" y="149.9" width="34" height="1.3" fill="#15171a" fill-opacity=".85"/><rect x="0" y="133.8" width="34" height="1.3" fill="#15171a" fill-opacity=".85"/><rect x="356" y="133.8" width="34" height="1.3" fill="#15171a" fill-opacity=".85"/><rect x="0" y="117.1" width="390" height="2.2" fill="url(#fade)"/><rect x="0" y="101.3" width="34" height="1.3" fill="#15171a" fill-opacity=".85"/><rect x="356" y="101.3" width="34" height="1.3" fill="#15171a" fill-opacity=".85"/><rect x="0" y="85.1" width="34" height="1.3" fill="#15171a" fill-opacity=".85"/><rect x="356" y="85.1" width="34" height="1.3" fill="#15171a" fill-opacity=".85"/><rect x="0" y="68.5" width="390" height="2.2" fill="url(#fade)"/></svg>