<svg xmlns="http://www.w3.org/2000/svg" xmlns:xlink="http://www.w3.org/1999/xlink" viewBox="0 0 800 600" width="800" height="600"><title></title><defs><linearGradient id="wallg" x1="0" y1="0" x2="0" y2="1"><stop offset="0%" stop-color="#15151a"/><stop offset="100%" stop-color="#0b0b0e"/></linearGradient><linearGradient id="surf" x1="0" y1="0" x2="0" y2="1"><stop offset="0%" stop-color="#24242a"/><stop offset="35%" stop-color="#15151a"/><stop offset="100%" stop-color="#08080a"/></linearGradient><radialGradient id="acg" cx="380" cy="270" r="460" gradientUnits="userSpaceOnUse"><stop offset="0%" stop-color="#d9a441" stop-opacity="0.220"/><stop offset="60%" stop-color="#d9a441" stop-opacity="0.070"/><stop offset="100%" stop-color="#d9a441" stop-opacity="0.000"/></radialGradient><radialGradient id="spotc" cx="380" cy="310" r="330" gradientUnits="userSpaceOnUse"><stop offset="0%" stop-color="#fff3dc" stop-opacity="0.200"/><stop offset="50%" stop-color="#fff3dc" stop-opacity="0.060"/><stop offset="100%" stop-color="#fff3dc" stop-opacity="0.000"/></radialGradient><linearGradient id="beam" x1="0" y1="0" x2="0" y2="1"><stop offset="0" stop-color="#fff4de" stop-opacity=".18"/><stop offset="1" stop-color="#fff4de" stop-opacity=".02"/></linearGradient><radialGradient id="pool"><stop offset="0" stop-color="#fff0d2" stop-opacity=".30"/><stop offset=".6" stop-color="#fff0d2" stop-opacity=".08"/><stop offset="1" stop-color="#fff0d2" stop-opacity="0"/></radialGradient><radialGradient id="shadow"><stop offset="0" stop-color="#000" stop-opacity=".75"/><stop offset="1" stop-color="#000" stop-opacity="0"/></radialGradient><linearGradient id="amber" x1="0" y1="0" x2="1" y2="0"><stop offset="0%" stop-color="#5a2c0c"/><stop offset="25%" stop-color="#d18a38"/><stop offset="50%" stop-color="#a45d1a"/><stop offset="85%" stop-color="#5b2d0d"/><stop offset="100%" stop-color="#3a1c08"/></linearGradient><linearGradient id="cap" x1="0" y1="0" x2="1" y2="0"><stop offset="0%" stop-color="#9a9a95"/><stop offset="40%" stop-color="#fafaf6"/><stop offset="100%" stop-color="#a9a9a3"/></linearGradient><linearGradient id="label" x1="0" y1="0" x2="1" y2="0"><stop offset="0%" stop-color="#a8a8a2"/><stop offset="40%" stop-color="#f4f4ee"/><stop offset="100%" stop-color="#b6b6b0"/></linearGradient><linearGradient id="pill" x1="0" y1="0" x2="1" y2="1"><stop offset="0%" stop-color="#ffffff"/><stop offset="100%" stop-color="#b9bcc2"/></linearGradient><linearGradient id="foil" x1="0" y1="0" x2="1" y2="1"><stop offset="0%" stop-color="#e6e9ee"/><stop offset="50%" stop-color="#9aa1ab"/><stop offset="100%" stop-color="#d3d7dd"/></linearGradient><radialGradient id="vg" cx="400.0" cy="276.0" r="624.0" gradientUnits="userSpaceOnUse"><stop offset="0%" stop-color="#000000" stop-opacity="0.000"/><stop offset="55%" stop-color="#000000" stop-opacity="0.000"/><stop offset="100%" stop-color="#000000" stop-opacity="0.740"/></radialGradient><linearGradient id="bs" x1="0" y1="0" x2="0" y2="1"><stop offset="0%" stop-color="#050507" stop-opacity="0.000"/><stop offset="62%" stop-color="#050507" stop-opacity="0.000"/><stop offset="82%" stop-color="#050507" stop-opacity="0.550"/><stop offset="100%" stop-color="#050507" stop-opacity="0.900"/></linearGradient></defs><rect width="800" height="600" fill="url(#wallg)"/><rect width="800" height="600" fill="url(#acg)"/><rect x="0" y="330" width="800" height="270" fill="url(#surf)"/><rect x="0" y="330" width="800" height="2" fill="#fff" opacity=".10"/><line x1="0" y1="375" x2="800" y2="375" stroke="#000" stroke-width="2" opacity=".35"/><line x1="0" y1="420" x2="800" y2="420" stroke="#000" stroke-width="2" opacity=".35"/><line x1="0" y1="465" x2="800" y2="465" stroke="#000" stroke-width="2" opacity=".35"/><line x1="0" y1="510" x2="800" y2="510" stroke="#000" stroke-width="2" opacity=".35"/><line x1="0" y1="555" x2="800" y2="555" stroke="#000" stroke-width="2" opacity=".35"/><line x1="0" y1="600" x2="800" y2="600" stroke="#000" stroke-width="2" opacity=".35"/><rect x="470.4" y="381.6" width="174.3" height="1.5" fill="#fff" opacity="0.03"/><rect x="546.5" y="393.8" width="205.4" height="1.5" fill="#fff" opacity="0.03"/><rect x="134.7" y="463.2" width="60.6" height="1.5" fill="#fff" opacity="0.03"/><rect x="11.3" y="482.5" width="202.9" height="1.5" fill="#fff" opacity="0.02"/><rect x="-8.7" y="397.8" width="239.6" height="1.5" fill="#fff" opacity="0.04"/><rect x="415.8" y="552" width="66.1" height="1.5" fill="#fff" opacity="0.03"/><rect x="45.7" y="461.4" width="231.4" height="1.5" fill="#fff" opacity="0.03"/><rect x="565" y="379.2" width="82.5" height="1.5" fill="#fff" opacity="0.05"/><rect x="368.5" y="450.8" width="121.7" height="1.5" fill="#fff" opacity="0.03"/><rect x="-12.5" y="386.9" width="215.9" height="1.5" fill="#fff" opacity="0.02"/><rect x="114.3" y="529.3" width="234.4" height="1.5" fill="#fff" opacity="0.05"/><rect x="524.5" y="523.2" width="164.5" height="1.5" fill="#fff" opacity="0.04"/><rect x="312.5" y="371.4" width="208.9" height="1.5" fill="#fff" opacity="0.02"/><rect x="616.8" y="563.6" width="133.7" height="1.5" fill="#fff" opacity="0.03"/><rect x="245.5" y="450.3" width="239.1" height="1.5" fill="#fff" opacity="0.03"/><rect x="29" y="348.4" width="189.3" height="1.5" fill="#fff" opacity="0.05"/><rect x="323.7" y="461" width="159.1" height="1.5" fill="#fff" opacity="0.04"/><rect x="410.6" y="395.3" width="160.2" height="1.5" fill="#fff" opacity="0.04"/><polygon points="350,-10 410,-10 680,420 80,420" fill="url(#beam)"/><ellipse cx="380" cy="390" rx="330" ry="84" fill="url(#pool)"/><ellipse cx="320" cy="384" rx="150" ry="22" fill="url(#shadow)" opacity="1"/><rect x="254" y="150" width="132" height="226" rx="16" fill="url(#amber)"/><rect x="254" y="150" width="132" height="226" rx="16" fill="none" stroke="#000" stroke-width="2" opacity=".4"/><rect x="266" y="164" width="9" height="196" rx="4" fill="#ffe2b0" opacity=".45"/><rect x="272" y="226" width="96" height="104" rx="5" fill="url(#label)"/><rect x="272" y="226" width="96" height="18" fill="#d9a441" opacity=".95"/><rect x="272" y="312" width="96" height="18" fill="#d9a441" opacity=".55"/><rect x="284" y="258" width="70" height="5" rx="2.5" fill="#6a6a66" opacity=".5"/><rect x="284" y="269" width="48" height="5" rx="2.5" fill="#6a6a66" opacity=".5"/><rect x="284" y="280" width="70" height="5" rx="2.5" fill="#6a6a66" opacity=".5"/><rect x="284" y="291" width="48" height="5" rx="2.5" fill="#6a6a66" opacity=".5"/><path d="M330 340 l8 0 M334 336 l0 8" stroke="#3a3a36" stroke-width="3" opacity="0"/><rect x="248" y="104" width="144" height="54" rx="9" fill="url(#cap)" stroke="#6a6a66" stroke-width="1.6"/><line x1="258" y1="108" x2="258" y2="154" stroke="#000" stroke-width="1.6" opacity=".18"/><line x1="267" y1="108" x2="267" y2="154" stroke="#000" stroke-width="1.6" opacity=".18"/><line x1="277" y1="108" x2="277" y2="154" stroke="#000" stroke-width="1.6" opacity=".18"/><line x1="286" y1="108" x2="286" y2="154" stroke="#000" stroke-width="1.6" opacity=".18"/><line x1="296" y1="108" x2="296" y2="154" stroke="#000" stroke-width="1.6" opacity=".18"/><line x1="306" y1="108" x2="306" y2="154" stroke="#000" stroke-width="1.6" opacity=".18"/><line x1="315" y1="108" x2="315" y2="154" stroke="#000" stroke-width="1.6" opacity=".18"/><line x1="325" y1="108" x2="325" y2="154" stroke="#000" stroke-width="1.6" opacity=".18"/><line x1="334" y1="108" x2="334" y2="154" stroke="#000" stroke-width="1.6" opacity=".18"/><line x1="344" y1="108" x2="344" y2="154" stroke="#000" stroke-width="1.6" opacity=".18"/><line x1="354" y1="108" x2="354" y2="154" stroke="#000" stroke-width="1.6" opacity=".18"/><line x1="363" y1="108" x2="363" y2="154" stroke="#000" stroke-width="1.6" opacity=".18"/><line x1="373" y1="108" x2="373" y2="154" stroke="#000" stroke-width="1.6" opacity=".18"/><line x1="382" y1="108" x2="382" y2="154" stroke="#000" stroke-width="1.6" opacity=".18"/><rect x="248" y="104" width="144" height="7" rx="3" fill="#fff" opacity=".6"/><path d="M248 150 h144" stroke="#000" stroke-width="3" opacity=".25"/><ellipse cx="288.5" cy="360.3" rx="8" ry="5" fill="#fff" opacity=".28" transform="rotate(117.4 320 355)"/><ellipse cx="355.2" cy="349" rx="8" ry="5" fill="#fff" opacity=".28" transform="rotate(46 320 355)"/><ellipse cx="338.7" cy="359.1" rx="8" ry="5" fill="#fff" opacity=".28" transform="rotate(54.5 320 355)"/><ellipse cx="334.7" cy="352.3" rx="8" ry="5" fill="#fff" opacity=".28" transform="rotate(140 320 355)"/><ellipse cx="289.5" cy="347.8" rx="8" ry="5" fill="#fff" opacity=".28" transform="rotate(162.3 320 355)"/><ellipse cx="308.6" cy="348.8" rx="8" ry="5" fill="#fff" opacity=".28" transform="rotate(144.8 320 355)"/><ellipse cx="330.5" cy="345.9" rx="8" ry="5" fill="#fff" opacity=".28" transform="rotate(99.2 320 355)"/><ellipse cx="333.1" cy="346.3" rx="8" ry="5" fill="#fff" opacity=".28" transform="rotate(117.3 320 355)"/><ellipse cx="289.8" cy="350.8" rx="8" ry="5" fill="#fff" opacity=".28" transform="rotate(15 320 355)"/><ellipse cx="296.4" cy="367.4" rx="8" ry="5" fill="#fff" opacity=".28" transform="rotate(72.7 320 355)"/><ellipse cx="453" cy="383.1" rx="14.3" ry="5.2" fill="url(#shadow)" opacity="0.9"/><circle cx="450" cy="372" r="13" fill="url(#pill)" stroke="#8d9097" stroke-width="1.2"/><path d="M440.9 372 h18.2" stroke="#8d9097" stroke-width="1.6" opacity=".7"/><circle cx="445.4" cy="366.8" r="3.6" fill="#fff" opacity=".5"/><ellipse cx="495" cy="405.1" rx="14.3" ry="5.2" fill="url(#shadow)" opacity="0.9"/><circle cx="492" cy="394" r="13" fill="url(#pill)" stroke="#8d9097" stroke-width="1.2"/><path d="M482.9 394 h18.2" stroke="#8d9097" stroke-width="1.6" opacity=".7"/><circle cx="487.4" cy="388.8" r="3.6" fill="#fff" opacity=".5"/><ellipse cx="431" cy="415.1" rx="14.3" ry="5.2" fill="url(#shadow)" opacity="0.9"/><circle cx="428" cy="404" r="13" fill="url(#pill)" stroke="#8d9097" stroke-width="1.2"/><path d="M418.9 404 h18.2" stroke="#8d9097" stroke-width="1.6" opacity=".7"/><circle cx="423.4" cy="398.8" r="3.6" fill="#fff" opacity=".5"/><ellipse cx="541" cy="383.1" rx="14.3" ry="5.2" fill="url(#shadow)" opacity="0.9"/><circle cx="538" cy="372" r="13" fill="url(#pill)" stroke="#8d9097" stroke-width="1.2"/><path d="M528.9 372 h18.2" stroke="#8d9097" stroke-width="1.6" opacity=".7"/><circle cx="533.5" cy="366.8" r="3.6" fill="#fff" opacity=".5"/><ellipse cx="473" cy="441.1" rx="14.3" ry="5.2" fill="url(#shadow)" opacity="0.9"/><circle cx="470" cy="430" r="13" fill="url(#pill)" stroke="#8d9097" stroke-width="1.2"/><path d="M460.9 430 h18.2" stroke="#8d9097" stroke-width="1.6" opacity=".7"/><circle cx="465.4" cy="424.8" r="3.6" fill="#fff" opacity=".5"/><g transform="translate(560 420) rotate(-18)"><ellipse cx="2" cy="12" rx="28" ry="8" fill="url(#shadow)" opacity="0.9"/><rect x="-26" y="-11" width="30" height="22" rx="11" fill="url(#pill)" stroke="#8d9097" stroke-width="1.1"/><rect x="-4" y="-11" width="30" height="22" rx="11" fill="#b88b37" stroke="#6a4310" stroke-width="1.1"/><rect x="-4" y="-11" width="12" height="22" fill="#b88b37"/><rect x="-21" y="-7" width="40" height="4" rx="2" fill="#fff" opacity=".35"/></g><g transform="translate(380 428) rotate(24)"><ellipse cx="2" cy="12" rx="28" ry="8" fill="url(#shadow)" opacity="0.9"/><rect x="-26" y="-11" width="30" height="22" rx="11" fill="url(#pill)" stroke="#8d9097" stroke-width="1.1"/><rect x="-4" y="-11" width="30" height="22" rx="11" fill="#b88b37" stroke="#6a4310" stroke-width="1.1"/><rect x="-4" y="-11" width="12" height="22" fill="#b88b37"/><rect x="-21" y="-7" width="40" height="4" rx="2" fill="#fff" opacity=".35"/></g><g transform="translate(610 380) rotate(10)"><ellipse cx="2" cy="12" rx="28" ry="8" fill="url(#shadow)" opacity="0.9"/><rect x="-26" y="-11" width="30" height="22" rx="11" fill="url(#pill)" stroke="#8d9097" stroke-width="1.1"/><rect x="-4" y="-11" width="30" height="22" rx="11" fill="#b88b37" stroke="#6a4310" stroke-width="1.1"/><rect x="-4" y="-11" width="12" height="22" fill="#b88b37"/><rect x="-21" y="-7" width="40" height="4" rx="2" fill="#fff" opacity=".35"/></g><g transform="translate(170 392) rotate(-8)"><rect x="-70" y="-26" width="140" height="56" rx="6" fill="url(#foil)" stroke="#555a62" stroke-width="1.2"/><ellipse cx="-44" cy="-8" rx="15" ry="11" fill="#c4c8cf" stroke="#6a6f77" stroke-width="1.2"/><ellipse cx="-48" cy="-12" rx="7" ry="4" fill="#fff" opacity=".6"/><ellipse cx="-44" cy="20" rx="15" ry="11" fill="#c4c8cf" stroke="#6a6f77" stroke-width="1.2"/><ellipse cx="-48" cy="16" rx="7" ry="4" fill="#fff" opacity=".6"/><ellipse cx="0" cy="-8" rx="15" ry="11" fill="#c4c8cf" stroke="#6a6f77" stroke-width="1.2"/><ellipse cx="-4" cy="-12" rx="7" ry="4" fill="#fff" opacity=".6"/><ellipse cx="0" cy="20" rx="15" ry="11" fill="#c4c8cf" stroke="#6a6f77" stroke-width="1.2"/><ellipse cx="-4" cy="16" rx="7" ry="4" fill="#fff" opacity=".6"/><ellipse cx="44" cy="-8" rx="15" ry="11" fill="#c4c8cf" stroke="#6a6f77" stroke-width="1.2"/><ellipse cx="40" cy="-12" rx="7" ry="4" fill="#fff" opacity=".6"/><ellipse cx="44" cy="20" rx="15" ry="11" fill="#c4c8cf" stroke="#6a6f77" stroke-width="1.2"/><ellipse cx="40" cy="16" rx="7" ry="4" fill="#fff" opacity=".6"/></g><rect width="800" height="600" fill="url(#vg)"/><rect width="800" height="600" fill="url(#bs)"/></svg>
